<?xml version="1.0" encoding="UTF-8"?>
<svg id="Camada_1" data-name="Camada 1" xmlns="http://www.w3.org/2000/svg" viewBox="0 0 1920 1080">
  <defs>
    <style>
      .cls-1 {
        fill: #c1722e;
        stroke-width: 0px;
      }
    </style>
  </defs>
  <g>
    <path class="cls-1" d="M654.33,493.37v24.28h-39.24v7.74h27.27v22.17h-27.27v13.9h39.24v23.75h-64.75v-91.85h64.75Z"/>
    <path class="cls-1" d="M739.67,490.56l19.71,6.33-2.29,17.6v70.56h-25.51v-35.19l-18.12,26.22-18.12-26.22v35.19h-25.51v-70.56l-2.29-17.6,19.71-6.33,26.22,42.05,26.22-42.05Z"/>
    <path class="cls-1" d="M776.97,493.37h44.17s26.92,0,26.92,25.69v5.63c0,2.64-.53,8.45-4.57,11.61,4.22,5.63,4.57,12.67,4.57,12.67v10.73c0,25.34-20.76,26.39-25.87,26.39-8.62,0-16.36-2.64-22.7-6.33l-1.94,5.45h-20.59v-91.85ZM802.48,517.13v8.97h16.01s4.58,0,4.58-1.58v-5.98s0-1.41-4.58-1.41h-16.01ZM823.07,548.97c0-3.17-4.58-3.17-4.58-3.17h-16.01v9.33c7.74,5.28,12.67,7.04,15.84,7.04,4.75,0,4.75-2.46,4.75-2.46v-10.73Z"/>
    <path class="cls-1" d="M857.73,580.65l31.32-87.28h24.81l30.97,87.28-23.75,8.8-6.16-20.06h-26.75l-6.51,20.06-23.93-8.8ZM895.39,549.33h12.49l-6.51-17.42-5.98,17.42Z"/>
    <path class="cls-1" d="M983.72,493.37v91.67h-25.69v-91.67h25.69Z"/>
    <path class="cls-1" d="M998.68,500.59l23.93-9.85,16.54,24.99,16.36-24.99,23.93,9.85-25.51,37.83,26.57,39.59-21.99,10.56-19.36-28.33-19.36,28.33-21.99-10.56,26.39-39.77-25.51-37.65Z"/>
    <path class="cls-1" d="M1084.9,580.65l31.32-87.28h24.81l30.97,87.28-23.75,8.8-6.16-20.06h-26.75l-6.51,20.06-23.93-8.8ZM1122.55,549.33h12.49l-6.51-17.42-5.98,17.42Z"/>
    <path class="cls-1" d="M1184.32,493.37h44.17s26.92,0,26.92,28.68v36.95c0,25.34-20.76,27.1-26.92,27.1-7.92,0-15.31-2.64-21.64-6.33l-1.94,5.45h-20.59v-91.85ZM1230.24,522.05s0-4.4-4.4-4.4h-16.01v37.48c7.57,5.28,12.67,7.04,15.84,7.04,4.57,0,4.57-4.75,4.57-4.75v-35.37Z"/>
    <path class="cls-1" d="M1344.09,560.24s0,26.57-36.42,26.57-36.42-22.35-36.42-26.57v-41.88c0-4.22,1.58-26.57,36.42-26.57s36.42,22.35,36.42,26.57v41.88ZM1318.4,557.95v-36.6c0-1.23-.7-5.45-10.73-5.45s-10.73,4.22-10.73,5.45v36.6c0,1.23.7,4.75,10.73,4.75s10.73-3.52,10.73-4.75Z"/>
    <path class="cls-1" d="M1388.08,585.05h-25.51v-91.67h44.17s26.75,0,26.75,28.68v5.98c0,15.84-7.04,22.52-13.9,25.51l18.48,24.63-21.47,11.09-26.22-32.73h-2.29v28.51ZM1388.08,532.26h15.84c4.4,0,4.4-4.22,4.4-4.22v-5.98s0-4.4-4.4-4.4h-15.84v14.6Z"/>
    <path class="cls-1" d="M1517.76,493.37v24.28h-39.24v7.74h27.27v22.17h-27.27v13.9h39.24v23.75h-64.75v-91.85h64.75Z"/>
    <path class="cls-1" d="M1537.99,546.51c7.57,9.33,20.06,16.01,24.99,16.01,8.62,0,10.03-3.17,10.03-6.51v-2.99c0-1.06-1.94-1.41-1.94-1.41l-18.65-4.75c-21.11-5.28-24.11-24.63-24.11-24.63v-3.34c0-25.69,20.41-27.1,26.92-27.1,23.05,0,42.76,11.79,42.76,11.79l-10.03,20.59c-15.48-7.57-25.87-8.45-29.03-8.45-4.22,0-5.1,1.23-5.1,3.34v3.17c0,.18,1.76.53,1.76.53l18.48,4.57c24.11,5.98,24.46,18.48,24.46,25.51v3.17c0,17.42-8.97,30.79-35.54,30.79-11.26,0-27.27-7.39-36.42-18.48l11.44-21.82Z"/>
  </g>
  <g>
    <path class="cls-1" d="M478.25,532.31c3.61,3.41,7.25,6.83,10.91,10.26v85.39c-4.17,2.89-8.55,5.49-13.12,7.78.92-23.09,1.49-46.72,1.85-69.67.17-9.21.28-21.5.36-33.76Z"/>
    <path class="cls-1" d="M456.46,643.21c-5.05,1.38-10.26,2.39-15.59,3.02.54-13.69,1.04-29.95,1.37-43.6.89-33.09,1.28-69.04,1.46-103.61,3.08,3.01,6.16,6.01,9.22,8.98.05,10.56.13,22.39.34,31.9.53,34.21,1.74,69.12,3.2,103.31Z"/>
    <path class="cls-1" d="M406.5,644.72c1.04-22.62,1.61-46.16,2.08-68.77.4-20.4.55-48.51.63-70.12,3.08-3.28,6.16-6.57,9.22-9.87.13,14.23.32,28.92.53,41.67.72,35.92,1.75,73.27,3.07,109.12"/>
    <path class="cls-1" d="M387.09,638.71c-4.35-1.83-8.55-3.92-12.59-6.28-.35-29.03-1.64-58.44-2.76-87.52,4.06-4.17,8.13-8.37,12.19-12.58.04,3.13.09,6.15.15,8.96.51,32.25,1.63,65.12,3,97.41Z"/>
    <path class="cls-1" d="M511.22,560.77c4.09-4.47,8.35-9.37,12.33-13.79-21.16-23.11-42.99-46.58-64.73-69.22-9.91-10.31-23.45-24.19-33.56-34.33-3.84,3.8-15.08,14.94-18.91,18.74,2.42,2.41,4.92,4.9,7.49,7.45-18.4,17.13-37.39,35.48-54.72,52.4-1.52,1.5-25.2,24.96-26,25.75l2.81,2.79c1.74,1.73,11.13,11.02,14.4,14.26-.46,15.82-.77,32-.99,47.25-17.3-18.99-27.85-44.25-27.85-71.96,0-59.01,47.84-106.85,106.85-106.85s106.85,47.84,106.85,106.85c0,25.57-8.98,49.05-23.97,67.44v-46.77Z"/>
  </g>
</svg>