<svg width="1000" height="500" viewBox="0 0 1000 500" fill="none" xmlns="http://www.w3.org/2000/svg">
<rect width="1000" height="500" fill="white"/>
<path d="M354.225 237.696C359.833 242.992 365.481 248.296 371.153 253.616V386.096C364.689 390.576 357.889 394.616 350.793 398.16C352.225 362.336 353.105 325.672 353.665 290.072C353.921 275.776 354.097 256.72 354.225 237.696Z" fill="#C1722E"/>
<path d="M320.414 409.752C312.574 411.888 304.494 413.464 296.23 414.432C297.062 393.192 297.846 367.968 298.35 346.792C299.726 295.448 300.334 239.68 300.622 186.048C305.406 190.72 310.182 195.376 314.926 199.976C315.006 216.352 315.134 234.712 315.454 249.464C316.278 302.544 318.15 356.704 320.414 409.752Z" fill="#C1722E"/>
<path d="M242.912 412.096C244.52 377 245.408 340.48 246.136 305.4C246.752 273.744 246.992 230.144 247.12 196.616C251.904 191.52 256.68 186.416 261.424 181.296C261.624 203.376 261.928 226.16 262.24 245.952C263.36 301.68 264.952 359.624 267 415.248" fill="#C1722E"/>
<path d="M212.8 402.768C206.056 399.936 199.528 396.68 193.272 393.024C192.736 347.992 190.728 302.36 188.992 257.24C195.288 250.768 201.6 244.256 207.904 237.728C207.968 242.584 208.048 247.264 208.144 251.632C208.928 301.664 210.672 352.672 212.8 402.768Z" fill="#C1722E"/>
<path d="M405.376 281.848C411.72 274.912 418.336 267.312 424.504 260.456C391.68 224.6 357.808 188.192 324.08 153.064C308.712 137.072 287.696 115.536 272.016 99.8C266.064 105.696 248.624 122.984 242.68 128.872C246.432 132.608 250.312 136.472 254.296 140.424C225.744 167.008 196.28 195.464 169.392 221.72C167.04 224.048 130.296 260.44 129.056 261.664L133.416 265.992C136.112 268.68 150.688 283.096 155.752 288.112C155.032 312.656 154.552 337.76 154.216 361.416C127.368 331.952 111 292.768 111 249.776C111 158.216 185.216 84 276.776 84C368.336 84 442.56 158.216 442.56 249.776C442.56 289.448 428.624 325.872 405.376 354.408V281.848Z" fill="#C1722E"/>
<path d="M576.905 107.692V129.492H541.681V136.444H566.161V156.348H541.681V168.828H576.905V190.156H518.777V107.7H576.905V107.692Z" fill="#C1722E"/>
<path d="M653.512 105.164L671.2 110.852L669.144 126.644V189.988H646.24V158.396L629.968 181.932L613.696 158.396V189.988H590.792V126.644L588.736 110.852L606.424 105.164L629.96 142.916L653.496 105.164H653.512Z" fill="#C1722E"/>
<path d="M516.961 206.428H556.609C556.609 206.428 580.777 206.428 580.777 229.492V234.548C580.777 236.916 580.305 242.132 576.673 244.972C580.465 250.028 580.777 256.348 580.777 256.348V265.98C580.777 288.724 562.137 289.676 557.561 289.676C549.817 289.676 542.873 287.308 537.185 283.988L535.449 288.884H516.969V206.428H516.961ZM539.865 227.748V235.804H554.241C554.241 235.804 558.345 235.804 558.345 234.38V229.012C558.345 229.012 558.345 227.748 554.241 227.748H539.865ZM558.345 256.34C558.345 253.5 554.241 253.5 554.241 253.5H539.865V261.868C546.817 266.604 551.241 268.188 554.081 268.188C558.345 268.188 558.345 265.98 558.345 265.98V256.348V256.34Z" fill="#C1722E"/>
<path d="M589.457 284.772L617.577 206.428H639.849L667.649 284.772L646.321 292.668L640.793 274.66H616.785L610.937 292.668L589.457 284.772ZM623.265 256.66H634.481L628.633 241.02L623.265 256.66Z" fill="#C1722E"/>
<path d="M702.56 206.428V288.724H679.496V206.428H702.56Z" fill="#C1722E"/>
<path d="M715.984 212.9L737.464 204.052L752.312 226.484L767 204.052L788.48 212.9L765.576 246.86L789.424 282.404L769.68 291.884L752.304 266.452L734.928 291.884L715.184 282.404L738.88 246.708L715.976 212.908L715.984 212.9Z" fill="#C1722E"/>
<path d="M793.385 284.772L821.505 206.428H843.777L871.577 284.772L850.249 292.668L844.721 274.66H820.713L814.865 292.668L793.385 284.772ZM827.185 256.66H838.401L832.553 241.02L827.185 256.66Z" fill="#C1722E"/>
<path d="M516.961 308.004H556.609C556.609 308.004 580.777 308.004 580.777 333.748V366.916C580.777 389.66 562.137 391.244 556.609 391.244C549.505 391.244 542.865 388.876 537.177 385.556L535.441 390.452H516.961V307.996V308.004ZM558.185 333.748C558.185 333.748 558.185 329.796 554.233 329.796H539.857V363.444C546.649 368.18 551.233 369.764 554.073 369.764C558.177 369.764 558.177 365.5 558.177 365.5V333.748H558.185Z" fill="#C1722E"/>
<path d="M660.384 368.028C660.384 368.028 660.384 391.876 627.688 391.876C594.992 391.876 594.992 371.812 594.992 368.028V330.436C594.992 326.644 596.416 306.588 627.688 306.588C658.96 306.588 660.384 326.652 660.384 330.436V368.028ZM637.32 365.972V333.116C637.32 332.012 636.688 328.22 627.688 328.22C618.688 328.22 618.056 332.012 618.056 333.116V365.972C618.056 367.076 618.688 370.236 627.688 370.236C636.688 370.236 637.32 367.076 637.32 365.972Z" fill="#C1722E"/>
<path d="M699.873 390.3H676.969V308.004H716.617C716.617 308.004 740.625 308.004 740.625 333.748V339.116C740.625 353.332 734.305 359.332 728.145 362.02L744.729 384.132L725.457 394.084L701.921 364.708H699.865V390.3H699.873ZM699.873 342.916H714.089C718.041 342.916 718.041 339.124 718.041 339.124V333.756C718.041 333.756 718.041 329.804 714.089 329.804H699.873V342.916Z" fill="#C1722E"/>
<path d="M816.288 308.004V329.804H781.064V336.756H805.544V356.66H781.064V369.14H816.288V390.468H758.16V308.012H816.288V308.004Z" fill="#C1722E"/>
<path d="M834.448 355.708C841.24 364.076 852.456 370.084 856.88 370.084C864.624 370.084 865.88 367.244 865.88 364.236V361.548C865.88 360.604 864.144 360.284 864.144 360.284L847.4 356.02C828.448 351.284 825.76 333.908 825.76 333.908V330.908C825.76 307.844 844.08 306.58 849.928 306.58C870.624 306.58 888.312 317.164 888.312 317.164L879.312 335.644C865.408 328.852 856.096 328.06 853.248 328.06C849.456 328.06 848.664 329.164 848.664 331.06V333.9C848.664 334.06 850.24 334.372 850.24 334.372L866.824 338.476C888.464 343.844 888.784 355.06 888.784 361.38V364.22C888.784 379.86 880.728 391.86 856.88 391.86C846.768 391.86 832.4 385.228 824.184 375.276L834.448 355.692V355.708Z" fill="#C1722E"/>
</svg>
