<?xml version="1.0" encoding="UTF-8"?>
<svg id="Camada_1" data-name="Camada 1" xmlns="http://www.w3.org/2000/svg" viewBox="0 0 1920 1080">
  <defs>
    <style>
      .cls-1 {
        fill: #fff;
        stroke-width: 0px;
      }
    </style>
  </defs>
  <g>
    <g>
      <path class="cls-1" d="M1056.13,362.58v27.25h-44.03v8.69h30.6v24.88h-30.6v15.6h44.03v26.66h-72.66v-103.07h72.66Z"/>
      <path class="cls-1" d="M1151.89,359.42l22.11,7.11-2.57,19.74v79.18h-28.63v-39.49l-20.34,29.42-20.34-29.42v39.49h-28.63v-79.18l-2.57-19.74,22.11-7.11,29.42,47.19,29.42-47.19Z"/>
    </g>
    <g>
      <path class="cls-1" d="M981.2,486h49.56s30.21,0,30.21,28.83v6.32c0,2.96-.59,9.48-5.13,13.03,4.74,6.32,5.13,14.22,5.13,14.22v12.04c0,28.43-23.3,29.62-29.02,29.62-9.68,0-18.36-2.96-25.47-7.11l-2.17,6.12h-23.1v-103.07ZM1009.83,512.65v10.07h17.97s5.13,0,5.13-1.78v-6.71s0-1.58-5.13-1.58h-17.97ZM1032.93,548.39c0-3.55-5.13-3.55-5.13-3.55h-17.97v10.46c8.69,5.92,14.22,7.9,17.77,7.9,5.33,0,5.33-2.76,5.33-2.76v-12.04Z"/>
      <path class="cls-1" d="M1071.82,583.93l35.15-97.93h27.84l34.75,97.93-26.66,9.87-6.91-22.51h-30.01l-7.31,22.51-26.85-9.87ZM1114.08,548.79h14.02l-7.31-19.55-6.71,19.55Z"/>
      <path class="cls-1" d="M1213.2,486v102.87h-28.83v-102.87h28.83Z"/>
      <path class="cls-1" d="M1229.98,494.09l26.85-11.06,18.56,28.04,18.36-28.04,26.85,11.06-28.63,42.45,29.81,44.43-24.68,11.85-21.72-31.79-21.72,31.79-24.68-11.85,29.62-44.62-28.63-42.25Z"/>
      <path class="cls-1" d="M1326.73,583.93l35.15-97.93h27.84l34.75,97.93-26.66,9.87-6.91-22.51h-30.01l-7.31,22.51-26.85-9.87ZM1368.98,548.79h14.02l-7.31-19.55-6.71,19.55Z"/>
    </g>
    <g>
      <path class="cls-1" d="M981.2,612.97h49.56s30.21,0,30.21,32.18v41.46c0,28.43-23.3,30.41-30.21,30.41-8.88,0-17.18-2.96-24.29-7.11l-2.17,6.12h-23.1v-103.07ZM1032.73,645.15s0-4.94-4.94-4.94h-17.97v42.06c8.49,5.92,14.22,7.9,17.77,7.9,5.13,0,5.13-5.33,5.13-5.33v-39.69Z"/>
      <path class="cls-1" d="M1160.48,688s0,29.81-40.87,29.81-40.87-25.08-40.87-29.81v-46.99c0-4.74,1.78-29.81,40.87-29.81s40.87,25.08,40.87,29.81v46.99ZM1131.65,685.43v-41.07c0-1.38-.79-6.12-12.04-6.12s-12.04,4.74-12.04,6.12v41.07c0,1.38.79,5.33,12.04,5.33s12.04-3.95,12.04-5.33Z"/>
      <path class="cls-1" d="M1209.84,715.84h-28.63v-102.87h49.56s30.01,0,30.01,32.18v6.71c0,17.77-7.9,25.27-15.6,28.63l20.73,27.64-24.09,12.44-29.42-36.72h-2.57v31.99ZM1209.84,656.61h17.77c4.94,0,4.94-4.74,4.94-4.74v-6.71s0-4.94-4.94-4.94h-17.77v16.39Z"/>
      <path class="cls-1" d="M1355.36,612.97v27.25h-44.03v8.69h30.6v24.88h-30.6v15.6h44.03v26.66h-72.66v-103.07h72.66Z"/>
      <path class="cls-1" d="M1378.06,672.6c8.49,10.46,22.51,17.97,28.04,17.97,9.68,0,11.25-3.55,11.25-7.31v-3.36c0-1.18-2.17-1.58-2.17-1.58l-20.93-5.33c-23.69-5.92-27.05-27.64-27.05-27.64v-3.75c0-28.83,22.9-30.41,30.21-30.41,25.87,0,47.98,13.23,47.98,13.23l-11.25,23.1c-17.38-8.49-29.02-9.48-32.58-9.48-4.74,0-5.73,1.38-5.73,3.75v3.55c0,.2,1.97.59,1.97.59l20.73,5.13c27.05,6.71,27.45,20.73,27.45,28.63v3.55c0,19.55-10.07,34.55-39.88,34.55-12.64,0-30.6-8.29-40.87-20.73l12.83-24.48Z"/>
    </g>
  </g>
  <g>
    <path class="cls-1" d="M778.05,525.09c7.01,6.62,14.07,13.25,21.16,19.9v165.6c-8.08,5.6-16.58,10.65-25.45,15.08,1.79-44.78,2.89-90.61,3.59-135.11.32-17.87.54-41.69.7-65.47Z"/>
    <path class="cls-1" d="M735.79,740.16c-9.8,2.67-19.9,4.64-30.23,5.85,1.04-26.55,2.02-58.08,2.65-84.55,1.72-64.18,2.48-133.89,2.84-200.93,5.98,5.84,11.95,11.66,17.88,17.41.1,20.47.26,43.42.66,61.86,1.03,66.35,3.37,134.05,6.2,200.36Z"/>
    <path class="cls-1" d="M638.91,743.09c2.01-43.87,3.12-89.52,4.03-133.37.77-39.57,1.07-94.07,1.23-135.98,5.98-6.37,11.95-12.75,17.88-19.15.25,27.6.63,56.08,1.02,80.82,1.4,69.66,3.39,142.09,5.95,211.62"/>
    <path class="cls-1" d="M601.27,731.43c-8.43-3.54-16.59-7.61-24.41-12.18-.67-56.29-3.18-113.33-5.35-169.73,7.87-8.09,15.76-16.23,23.64-24.39.08,6.07.18,11.92.3,17.38.98,62.54,3.16,126.3,5.82,188.92Z"/>
    <path class="cls-1" d="M841.99,580.28c7.93-8.67,16.2-18.17,23.91-26.74-41.03-44.82-83.37-90.33-125.53-134.24-19.21-19.99-45.48-46.91-65.08-66.58-7.44,7.37-29.24,28.98-36.67,36.34,4.69,4.67,9.54,9.5,14.52,14.44-35.69,33.23-72.52,68.8-106.13,101.62-2.94,2.91-48.87,48.4-50.42,49.93l5.45,5.41c3.37,3.36,21.59,21.38,27.92,27.65-.9,30.68-1.5,62.06-1.92,91.63-33.56-36.83-54.02-85.81-54.02-139.55,0-114.45,92.77-207.22,207.22-207.22s207.23,92.77,207.23,207.22c0,49.59-17.42,95.12-46.48,130.79v-90.7Z"/>
  </g>
</svg>